<svg width="524" height="560" viewBox="0 0 524 560" fill="none" xmlns="http://www.w3.org/2000/svg">
<g clip-path="url(#clip0_5_132)">
<path d="M100 95C100 83.9543 108.954 75 120 75H380C391.046 75 400 83.9543 400 95V153H100V95Z" fill="#00AEEF"/>
<rect x="101" y="153" width="300" height="78" fill="#004A8F"/>
<rect x="101" y="231" width="300" height="78" fill="#00AEEF"/>
<rect x="101" y="309" width="300" height="78" fill="#004A8F"/>
<rect x="101" y="387" width="300" height="78" fill="#00AEEF"/>
<path d="M101 465H401V543H101V465Z" fill="#004A8F"/>
<rect x="105" y="77" width="290" height="418" rx="5" stroke="black" stroke-width="10"/>
<circle cx="121" cy="96" r="6" fill="black"/>
<circle cx="151" cy="96" r="6" fill="black"/>
<circle cx="181" cy="96" r="6" fill="black"/>
<circle cx="211" cy="96" r="6" fill="black"/>
<circle cx="241" cy="96" r="6" fill="black"/>
<circle cx="271" cy="96" r="6" fill="black"/>
<circle cx="301" cy="96" r="6" fill="black"/>
<circle cx="331" cy="96" r="6" fill="black"/>
<circle cx="361" cy="96" r="6" fill="black"/>
<path fill-rule="evenodd" clip-rule="evenodd" d="M139.662 33.7062C142.395 44.0121 143 58.0065 143 72.3558H153C153 58.0303 152.431 42.8468 149.329 31.1435C147.776 25.2856 145.474 19.8379 141.908 15.7832C138.186 11.5526 133.208 9 127.008 9C117.038 9 110.152 14.2791 106.096 21.9218C102.205 29.254 100.848 38.7726 101.013 48.2954C101.18 57.9144 102.91 68.0633 105.661 77.016C108.381 85.8652 112.25 94.04 117.011 99.341C118.856 101.395 122.018 101.565 124.072 99.7199C126.126 97.8747 126.296 94.7134 124.451 92.659C121.079 88.9047 117.747 82.302 115.22 74.0784C112.725 65.9582 111.161 56.739 111.012 48.1218C110.861 39.4084 112.163 31.8227 114.929 26.6096C117.531 21.7071 121.301 19 127.008 19C130.13 19 132.437 20.1576 134.399 22.3882C136.516 24.7948 138.298 28.5595 139.662 33.7062Z" fill="#EA362B" stroke="black"/>
<path fill-rule="evenodd" clip-rule="evenodd" d="M147.096 23.6375C147.849 24.7951 147.52 26.3436 146.363 27.0961C145.357 27.7499 144.488 29.3278 143.961 31.7033C143.461 33.9589 143.398 36.3596 143.496 37.8347C143.587 39.2124 142.544 40.4032 141.166 40.4945C139.789 40.5857 138.598 39.5429 138.507 38.1652C138.384 36.3166 138.457 33.4288 139.079 30.621C139.675 27.9333 140.916 24.6731 143.637 22.9039C144.795 22.1514 146.344 22.4799 147.096 23.6375Z" fill="black" stroke="black" stroke-linecap="round"/>
<path fill-rule="evenodd" clip-rule="evenodd" d="M169.662 33.7062C172.395 44.0121 173 58.0065 173 72.3558L183 72.3558C183 58.0303 182.431 42.8468 179.329 31.1435C177.776 25.2856 175.474 19.8379 171.908 15.7832C168.186 11.5526 163.208 9 157.008 9C147.038 9 140.152 14.2791 136.096 21.9218C132.205 29.254 130.848 38.7726 131.013 48.2954C131.18 57.9144 132.91 68.0633 135.661 77.016C138.381 85.8652 142.25 94.04 147.011 99.341C148.856 101.395 152.018 101.565 154.072 99.7199C156.126 97.8747 156.296 94.7134 154.451 92.659C151.079 88.9047 147.747 82.302 145.22 74.0784C142.725 65.9582 141.161 56.739 141.012 48.1218C140.861 39.4084 142.163 31.8227 144.929 26.6096C147.531 21.7071 151.301 19 157.008 19C160.13 19 162.437 20.1576 164.399 22.3882C166.516 24.7948 168.298 28.5595 169.662 33.7062Z" fill="#EA362B" stroke="black"/>
<path fill-rule="evenodd" clip-rule="evenodd" d="M177.096 23.6375C177.849 24.7951 177.52 26.3436 176.363 27.0961C175.357 27.7499 174.488 29.3278 173.961 31.7033C173.461 33.9589 173.398 36.3596 173.496 37.8347C173.587 39.2124 172.544 40.4032 171.166 40.4945C169.789 40.5857 168.598 39.5429 168.507 38.1652C168.384 36.3166 168.457 33.4288 169.079 30.621C169.675 27.9333 170.916 24.6731 173.637 22.9039C174.795 22.1514 176.344 22.4799 177.096 23.6375Z" fill="black" stroke="black" stroke-linecap="round"/>
<path fill-rule="evenodd" clip-rule="evenodd" d="M199.662 33.7062C202.395 44.0121 203 58.0065 203 72.3558L213 72.3558C213 58.0303 212.431 42.8468 209.329 31.1435C207.776 25.2856 205.474 19.8379 201.908 15.7832C198.186 11.5526 193.208 9 187.008 9C177.038 9 170.152 14.2791 166.096 21.9218C162.205 29.254 160.848 38.7726 161.013 48.2954C161.18 57.9144 162.91 68.0633 165.661 77.016C168.381 85.8652 172.25 94.04 177.011 99.341C178.856 101.395 182.018 101.565 184.072 99.7199C186.126 97.8747 186.296 94.7134 184.451 92.659C181.079 88.9047 177.747 82.302 175.22 74.0784C172.725 65.9582 171.161 56.739 171.012 48.1218C170.861 39.4084 172.163 31.8227 174.929 26.6096C177.531 21.7071 181.301 19 187.008 19C190.13 19 192.437 20.1576 194.399 22.3882C196.516 24.7948 198.298 28.5595 199.662 33.7062Z" fill="#EA362B" stroke="black"/>
<path fill-rule="evenodd" clip-rule="evenodd" d="M207.096 23.6375C207.849 24.7951 207.52 26.3436 206.363 27.0961C205.357 27.7499 204.488 29.3278 203.961 31.7033C203.461 33.9589 203.398 36.3596 203.496 37.8347C203.587 39.2124 202.544 40.4032 201.166 40.4945C199.789 40.5857 198.598 39.5429 198.507 38.1652C198.384 36.3166 198.457 33.4288 199.079 30.621C199.675 27.9333 200.916 24.6731 203.637 22.9039C204.795 22.1514 206.344 22.4799 207.096 23.6375Z" fill="black" stroke="black" stroke-linecap="round"/>
<path fill-rule="evenodd" clip-rule="evenodd" d="M229.662 33.7062C232.395 44.0121 233 58.0065 233 72.3558L243 72.3558C243 58.0303 242.431 42.8468 239.329 31.1435C237.776 25.2856 235.474 19.8379 231.908 15.7832C228.186 11.5526 223.208 9 217.008 9C207.038 9 200.152 14.2791 196.096 21.9218C192.205 29.254 190.848 38.7726 191.013 48.2954C191.18 57.9144 192.91 68.0633 195.661 77.016C198.381 85.8652 202.25 94.04 207.011 99.341C208.856 101.395 212.018 101.565 214.072 99.7199C216.126 97.8747 216.296 94.7134 214.451 92.659C211.079 88.9047 207.747 82.302 205.22 74.0784C202.725 65.9582 201.161 56.739 201.012 48.1218C200.861 39.4084 202.163 31.8227 204.929 26.6096C207.531 21.7071 211.301 19 217.008 19C220.13 19 222.437 20.1576 224.399 22.3882C226.516 24.7948 228.298 28.5595 229.662 33.7062Z" fill="#EA362B" stroke="black"/>
<path fill-rule="evenodd" clip-rule="evenodd" d="M237.096 23.6375C237.849 24.7951 237.52 26.3436 236.363 27.0961C235.357 27.7499 234.488 29.3278 233.961 31.7033C233.461 33.9589 233.398 36.3596 233.496 37.8347C233.587 39.2124 232.544 40.4032 231.166 40.4945C229.789 40.5857 228.598 39.5429 228.507 38.1652C228.384 36.3166 228.457 33.4288 229.079 30.621C229.675 27.9333 230.916 24.6731 233.637 22.9039C234.795 22.1514 236.344 22.4799 237.096 23.6375Z" fill="black" stroke="black" stroke-linecap="round"/>
<path fill-rule="evenodd" clip-rule="evenodd" d="M259.662 33.7062C262.395 44.0121 263 58.0065 263 72.3558L273 72.3558C273 58.0303 272.431 42.8468 269.329 31.1435C267.776 25.2856 265.474 19.8379 261.908 15.7832C258.186 11.5526 253.208 9 247.008 9C237.038 9 230.152 14.2791 226.096 21.9218C222.205 29.254 220.848 38.7726 221.013 48.2954C221.18 57.9144 222.91 68.0633 225.661 77.016C228.381 85.8652 232.25 94.04 237.011 99.341C238.856 101.395 242.018 101.565 244.072 99.7199C246.126 97.8747 246.296 94.7134 244.451 92.659C241.079 88.9047 237.747 82.302 235.22 74.0784C232.725 65.9582 231.161 56.739 231.012 48.1218C230.861 39.4084 232.163 31.8227 234.929 26.6096C237.531 21.7071 241.301 19 247.008 19C250.13 19 252.437 20.1576 254.399 22.3882C256.516 24.7948 258.298 28.5595 259.662 33.7062Z" fill="#EA362B" stroke="black"/>
<path fill-rule="evenodd" clip-rule="evenodd" d="M267.096 23.6375C267.849 24.7951 267.52 26.3436 266.363 27.0961C265.357 27.7499 264.488 29.3278 263.961 31.7033C263.461 33.9589 263.398 36.3596 263.496 37.8347C263.587 39.2124 262.544 40.4032 261.166 40.4945C259.789 40.5857 258.598 39.5429 258.507 38.1652C258.384 36.3166 258.457 33.4288 259.079 30.621C259.675 27.9333 260.916 24.6731 263.637 22.9039C264.795 22.1514 266.344 22.4799 267.096 23.6375Z" fill="black" stroke="black" stroke-linecap="round"/>
<path fill-rule="evenodd" clip-rule="evenodd" d="M289.662 33.7062C292.395 44.0121 293 58.0065 293 72.3558L303 72.3558C303 58.0303 302.431 42.8468 299.329 31.1435C297.776 25.2856 295.474 19.8379 291.908 15.7832C288.186 11.5526 283.208 9 277.008 9C267.038 9 260.152 14.2791 256.096 21.9218C252.205 29.254 250.848 38.7726 251.013 48.2954C251.18 57.9144 252.91 68.0633 255.661 77.016C258.381 85.8652 262.25 94.04 267.011 99.341C268.856 101.395 272.018 101.565 274.072 99.7199C276.126 97.8747 276.296 94.7134 274.451 92.659C271.079 88.9047 267.747 82.302 265.22 74.0784C262.725 65.9582 261.161 56.739 261.012 48.1218C260.861 39.4084 262.163 31.8227 264.929 26.6096C267.531 21.7071 271.301 19 277.008 19C280.13 19 282.437 20.1576 284.399 22.3882C286.516 24.7948 288.298 28.5595 289.662 33.7062Z" fill="#EA362B" stroke="black"/>
<path fill-rule="evenodd" clip-rule="evenodd" d="M296.799 23.6375C297.551 24.7951 297.223 26.3436 296.065 27.0961C295.059 27.7499 294.19 29.3278 293.664 31.7033C293.163 33.9589 293.101 36.3596 293.198 37.8347C293.29 39.2124 292.247 40.4032 290.869 40.4945C289.491 40.5857 288.3 39.5429 288.209 38.1652C288.087 36.3166 288.16 33.4288 288.782 30.621C289.378 27.9333 290.618 24.6731 293.34 22.9039C294.498 22.1514 296.046 22.4799 296.799 23.6375Z" fill="black" stroke="black" stroke-linecap="round"/>
<path fill-rule="evenodd" clip-rule="evenodd" d="M319.662 33.7062C322.395 44.0121 323 58.0065 323 72.3558L333 72.3558C333 58.0303 332.431 42.8468 329.329 31.1435C327.776 25.2856 325.474 19.8379 321.908 15.7832C318.186 11.5526 313.208 9 307.008 9C297.038 9 290.152 14.2791 286.096 21.9218C282.205 29.254 280.848 38.7726 281.013 48.2954C281.18 57.9144 282.91 68.0633 285.661 77.016C288.381 85.8652 292.25 94.04 297.011 99.341C298.856 101.395 302.018 101.565 304.072 99.7199C306.126 97.8747 306.296 94.7134 304.451 92.659C301.079 88.9047 297.747 82.302 295.22 74.0784C292.725 65.9582 291.161 56.739 291.012 48.1218C290.861 39.4084 292.163 31.8227 294.929 26.6096C297.531 21.7071 301.301 19 307.008 19C310.13 19 312.437 20.1576 314.399 22.3882C316.516 24.7948 318.298 28.5595 319.662 33.7062Z" fill="#EA362B" stroke="black"/>
<path fill-rule="evenodd" clip-rule="evenodd" d="M326.799 23.6375C327.551 24.7951 327.223 26.3436 326.065 27.0961C325.059 27.7499 324.19 29.3278 323.664 31.7033C323.163 33.9589 323.101 36.3596 323.198 37.8347C323.29 39.2124 322.247 40.4032 320.869 40.4945C319.491 40.5857 318.3 39.5429 318.209 38.1652C318.087 36.3166 318.16 33.4288 318.782 30.621C319.378 27.9333 320.618 24.6731 323.34 22.9039C324.498 22.1514 326.046 22.4799 326.799 23.6375Z" fill="black" stroke="black" stroke-linecap="round"/>
<path fill-rule="evenodd" clip-rule="evenodd" d="M349.662 33.7062C352.395 44.0121 353 58.0065 353 72.3558L363 72.3558C363 58.0303 362.431 42.8468 359.329 31.1435C357.776 25.2856 355.474 19.8379 351.908 15.7832C348.186 11.5526 343.208 9 337.008 9C327.038 9 320.152 14.2791 316.096 21.9218C312.205 29.254 310.848 38.7726 311.013 48.2954C311.18 57.9144 312.91 68.0633 315.661 77.016C318.381 85.8652 322.25 94.04 327.011 99.341C328.856 101.395 332.018 101.565 334.072 99.7199C336.126 97.8747 336.296 94.7134 334.451 92.659C331.079 88.9047 327.747 82.302 325.22 74.0784C322.725 65.9582 321.161 56.739 321.012 48.1218C320.861 39.4084 322.163 31.8227 324.929 26.6096C327.531 21.7071 331.301 19 337.008 19C340.13 19 342.437 20.1576 344.399 22.3882C346.516 24.7948 348.298 28.5595 349.662 33.7062Z" fill="#EA362B" stroke="black"/>
<path fill-rule="evenodd" clip-rule="evenodd" d="M356.799 23.6375C357.551 24.7951 357.223 26.3436 356.065 27.0961C355.059 27.7499 354.19 29.3278 353.664 31.7033C353.163 33.9589 353.101 36.3596 353.198 37.8347C353.29 39.2124 352.247 40.4032 350.869 40.4945C349.491 40.5857 348.3 39.5429 348.209 38.1652C348.087 36.3166 348.16 33.4288 348.782 30.621C349.378 27.9333 350.618 24.6731 353.34 22.9039C354.498 22.1514 356.046 22.4799 356.799 23.6375Z" fill="black" stroke="black" stroke-linecap="round"/>
<path fill-rule="evenodd" clip-rule="evenodd" d="M379.662 33.7062C382.395 44.0121 383 58.0065 383 72.3558L393 72.3558C393 58.0303 392.431 42.8468 389.329 31.1435C387.776 25.2856 385.474 19.8379 381.908 15.7832C378.186 11.5526 373.208 9 367.008 9C357.038 9 350.152 14.2791 346.096 21.9218C342.205 29.254 340.848 38.7726 341.013 48.2954C341.18 57.9144 342.91 68.0633 345.661 77.016C348.381 85.8652 352.25 94.04 357.011 99.341C358.856 101.395 362.018 101.565 364.072 99.7199C366.126 97.8747 366.296 94.7134 364.451 92.659C361.079 88.9047 357.747 82.302 355.22 74.0784C352.725 65.9582 351.161 56.739 351.012 48.1218C350.861 39.4084 352.163 31.8227 354.929 26.6096C357.531 21.7071 361.301 19 367.008 19C370.13 19 372.437 20.1576 374.399 22.3882C376.516 24.7948 378.298 28.5595 379.662 33.7062Z" fill="#EA362B" stroke="black"/>
</g>
<path fill-rule="evenodd" clip-rule="evenodd" d="M297.744 313.403H297.148H205.311H204.493V307.973H206.139H295.808H297.744V313.403Z" fill="#EA362B"/>
<path fill-rule="evenodd" clip-rule="evenodd" d="M297.744 313.403H297.148H205.311H204.493V307.973H206.139H295.808H297.744V313.403Z" fill="black"/>
<path d="M164.356 298.878C169.205 295.361 174.407 292.651 179.507 291.904C184.548 291.165 189.433 292.368 193.474 296.346L206.139 307.973H295.808L308.325 296.481L308.267 296.425C312.422 292.132 317.518 291.029 322.717 292.027C327.748 292.993 332.877 295.908 337.657 299.575C340.942 302.096 344.167 305.055 347.208 308.176C359.354 263.408 351.959 233.842 334.017 215.244C315.532 196.083 285.189 187.831 250.845 187.438C216.492 187.828 186.853 195.82 169.054 214.679C152.008 232.741 145.187 261.491 156.707 305.265C159.179 302.939 161.749 300.768 164.356 298.878Z" fill="#EA362B"/>
<path d="M180.913 342.724H321.545L297.148 313.403H205.311L180.913 342.724Z" fill="#EA362B"/>
<path d="M148.395 322.635C156.884 322.804 166.297 328.13 176.101 340.026L200.755 310.396L190.068 300.585L190.049 300.603C189.945 300.492 189.84 300.384 189.735 300.279L189.649 300.2L189.652 300.197C186.942 297.543 183.816 296.76 180.292 297.276C176.432 297.842 172.064 299.992 167.535 303.276C160.497 308.379 153.607 315.823 148.395 322.635Z" fill="#EA362B"/>
<path d="M163.921 378.183C163.558 378.447 163.184 378.705 162.798 378.957L186.995 416.57H213.71V416.23L172.082 343.681C161.194 330.387 152.081 327.129 145.4 328.28C138.578 329.456 132.925 335.447 129.55 343.638C126.195 351.78 125.443 361.327 127.761 368.454C128.908 371.981 130.762 374.79 133.287 376.636C135.782 378.46 139.159 379.509 143.693 379.144C151.72 378.498 157.126 376.423 160.728 373.794C164.301 371.186 166.265 367.913 167.23 364.532C168.207 361.109 168.167 357.53 167.624 354.431C167.072 351.281 166.05 348.891 165.315 347.828C163.39 345.042 160.872 342.316 157.727 340.835C154.719 339.419 150.877 339.013 145.866 341.313C141.399 343.363 138.413 347.671 137.023 352.688C135.624 357.738 135.98 363.038 137.679 366.6C138.296 367.894 139.632 368.89 141.883 369.408C144.141 369.926 146.992 369.867 149.918 369.293C152.832 368.721 155.622 367.677 157.729 366.408C159.954 365.067 160.913 363.79 161.111 362.988C161.841 360.022 160.995 355.768 158.771 352.318C156.563 348.893 153.49 346.957 150.198 347.328C147.896 347.587 145.53 349.653 144.022 353.043C142.529 356.397 142.326 360.104 143.409 362.529C143.525 362.788 143.914 363.258 145.253 363.424C146.561 363.587 148.279 363.358 149.952 362.733C151.637 362.104 152.974 361.189 153.708 360.26C154.365 359.428 154.471 358.729 154.165 357.959C153.509 356.309 152.913 355.642 152.613 355.413C152.547 355.363 152.502 355.339 152.479 355.328L152.472 355.33C152.352 355.364 152.015 355.533 151.575 356.054C151.451 356.201 151.332 356.362 151.218 356.532C151.155 357.184 151.002 357.791 150.845 358.276C150.643 358.901 150.363 359.543 150.052 360.03C149.971 360.157 149.849 360.335 149.688 360.516L149.681 360.524C149.589 360.628 149.171 361.1 148.463 361.343C148.019 361.496 147.28 361.615 146.478 361.268C145.685 360.924 145.272 360.316 145.082 359.915C144.773 359.261 144.804 358.652 144.811 358.509L144.812 358.499C144.833 358.069 144.938 357.641 145.024 357.329C145.124 356.967 145.264 356.537 145.443 356.036C145.883 354.811 146.564 353.58 147.435 352.549C148.284 351.542 149.474 350.54 150.984 350.108C152.635 349.637 154.383 349.937 155.899 351.095C157.297 352.161 158.364 353.844 159.201 355.949C160.365 358.874 159.567 361.595 157.959 363.63C156.427 365.568 154.136 366.967 151.845 367.821C149.543 368.68 146.938 369.105 144.587 368.813C142.266 368.525 139.661 367.434 138.461 364.747C136.558 360.488 137.169 355.104 139.07 350.832C140.956 346.595 144.564 342.499 149.592 341.932C155.678 341.246 160.479 344.957 163.326 349.372C166.156 353.763 167.544 359.541 166.374 364.289C165.65 367.229 163.132 369.489 160.523 371.06C157.797 372.703 154.396 373.947 150.961 374.621C147.538 375.293 143.882 375.438 140.671 374.7C137.455 373.961 134.361 372.241 132.787 368.94C130.413 363.963 130.126 357.276 131.799 351.237C133.481 345.164 137.284 339.279 143.607 336.377C149.999 333.443 155.513 333.792 160.034 335.921C164.418 337.986 167.602 341.596 169.773 344.738C171.086 346.638 172.324 349.839 172.964 353.493C173.613 357.197 173.696 361.633 172.443 366.024C171.179 370.456 168.562 374.795 163.921 378.183Z" fill="#EA362B"/>
<path d="M310.042 366.072L320.458 348.154H180.902L191.183 366.072H310.042Z" fill="#EA362B"/>
<path d="M219.223 414.941H281.636L306.886 371.502H194.299L219.223 414.941Z" fill="#EA362B"/>
<path d="M337.207 378.314C337.19 378.301 337.172 378.288 337.155 378.276C332.52 374.936 329.9 370.654 328.634 366.271C327.379 361.932 327.463 357.548 328.112 353.889C328.752 350.281 329.991 347.118 331.307 345.238C333.478 342.137 336.659 338.578 341.035 336.544C345.543 334.448 351.038 334.104 357.415 336.992C363.726 339.852 367.531 345.657 369.216 351.659C370.89 357.625 370.603 364.234 368.225 369.155C366.646 372.424 363.551 374.116 360.35 374.842C357.149 375.568 353.503 375.426 350.089 374.765C346.662 374.101 343.268 372.876 340.547 371.257C337.948 369.711 335.421 367.48 334.692 364.559C333.518 359.855 334.913 354.14 337.743 349.806C340.594 345.441 345.388 341.795 351.446 342.469C356.454 343.026 360.063 347.058 361.953 351.252C363.856 355.472 364.472 360.801 362.561 365.021C361.354 367.689 358.746 368.758 356.443 369.04C354.102 369.327 351.505 368.91 349.209 368.064C346.926 367.223 344.637 365.845 343.104 363.93C341.492 361.917 340.682 359.209 341.856 356.297C342.695 354.215 343.764 352.551 345.163 351.497C346.677 350.356 348.414 350.064 350.052 350.526C351.555 350.95 352.744 351.937 353.596 352.933C354.467 353.953 355.151 355.17 355.592 356.384C355.772 356.879 355.912 357.305 356.012 357.664C356.098 357.971 356.205 358.399 356.226 358.832L356.227 358.842C356.234 358.986 356.266 359.601 355.95 360.26C355.755 360.666 355.338 361.268 354.549 361.605C353.754 361.945 353.025 361.828 352.586 361.679C351.88 361.44 351.462 360.974 351.369 360.87L351.362 360.863C351.2 360.682 351.077 360.506 350.995 360.379C350.682 359.895 350.401 359.258 350.198 358.638C350.042 358.161 349.888 357.564 349.824 356.921C349.714 356.758 349.598 356.605 349.478 356.465C349.042 355.956 348.706 355.788 348.582 355.753C348.575 355.751 348.57 355.749 348.565 355.748C348.543 355.758 348.495 355.781 348.422 355.836C348.127 356.059 347.536 356.71 346.884 358.329C346.59 359.059 346.683 359.721 347.333 360.533C348.062 361.444 349.395 362.347 351.081 362.968C352.753 363.584 354.474 363.811 355.785 363.65C357.136 363.485 357.517 363.015 357.624 362.779C358.695 360.413 358.498 356.782 357.012 353.486C355.514 350.164 353.159 348.123 350.848 347.866C347.543 347.498 344.476 349.417 342.28 352.779C340.065 356.171 339.228 360.344 339.952 363.242C340.143 364.01 341.088 365.264 343.315 366.588C345.419 367.84 348.206 368.869 351.118 369.434C354.042 370 356.894 370.059 359.152 369.547C361.411 369.034 362.737 368.049 363.345 366.79C365.033 363.296 365.389 358.092 363.996 353.128C362.613 348.201 359.641 343.961 355.18 341.94C350.171 339.67 346.326 340.07 343.317 341.469C340.177 342.929 337.665 345.614 335.746 348.355C335.018 349.396 333.999 351.742 333.45 354.839C332.909 357.885 332.87 361.401 333.842 364.762C334.801 368.08 336.755 371.299 340.321 373.868C343.917 376.459 349.317 378.506 357.337 379.142C361.872 379.503 365.248 378.466 367.739 376.668C370.258 374.851 372.103 372.089 373.245 368.624C375.552 361.62 374.805 352.23 371.46 344.216C368.098 336.161 362.461 330.255 355.64 329.094C349.046 327.972 340.104 331.09 329.44 343.73L329.645 343.977L328.7 344.766L286.963 416.57H315.416L337.207 378.314Z" fill="#EA362B"/>
<path d="M334.36 303.886C329.862 300.434 325.526 298.095 321.696 297.359C318.19 296.686 315.144 297.342 312.514 299.853L312.588 299.934L301.482 310.13L325.919 339.499C335.605 328.272 344.883 323.381 353.231 323.448C348.071 316.742 341.29 309.203 334.36 303.886Z" fill="#EA362B"/>
<path d="M153.096 312.533L158.301 311.014C157.735 309.069 157.204 307.153 156.707 305.265C155.192 306.69 153.714 308.173 152.286 309.686C152.548 310.629 152.818 311.578 153.096 312.533Z" fill="#EA362B"/>
<path d="M153.096 312.533L158.301 311.014C157.735 309.069 157.204 307.153 156.707 305.265C155.192 306.69 153.714 308.173 152.286 309.686C152.548 310.629 152.818 311.578 153.096 312.533Z" fill="black"/>
<path d="M310.756 371.502V366.072H310.042L306.886 371.502H310.756Z" fill="#EA362B"/>
<path d="M310.756 371.502V366.072H310.042L306.886 371.502H310.756Z" fill="black"/>
<path d="M321.545 342.724L322.763 344.188L323.614 342.724H321.545Z" fill="#EA362B"/>
<path d="M321.545 342.724L322.763 344.188L323.614 342.724H321.545Z" fill="black"/>
<path d="M320.458 348.154H325.394V347.35L322.763 344.188L320.458 348.154Z" fill="#EA362B"/>
<path d="M320.458 348.154H325.394V347.35L322.763 344.188L320.458 348.154Z" fill="black"/>
<path d="M357.316 329.057L361.785 325.984C361.586 325.693 361.381 325.397 361.172 325.098C359.71 324.478 358.168 324.017 356.548 323.741C355.46 323.556 354.354 323.457 353.231 323.448C354.744 325.415 356.118 327.31 357.316 329.057Z" fill="#EA362B"/>
<path d="M357.316 329.057L361.785 325.984C361.586 325.693 361.381 325.397 361.172 325.098C359.71 324.478 358.168 324.017 356.548 323.741C355.46 323.556 354.354 323.457 353.231 323.448C354.744 325.415 356.118 327.31 357.316 329.057Z" fill="black"/>
<path d="M346.105 312.1L351.31 313.619C351.384 313.363 351.459 313.106 351.532 312.85C350.145 311.275 348.699 309.706 347.208 308.176C346.857 309.471 346.489 310.779 346.105 312.1Z" fill="#EA362B"/>
<path d="M346.105 312.1L351.31 313.619C351.384 313.363 351.459 313.106 351.532 312.85C350.145 311.275 348.699 309.706 347.208 308.176C346.857 309.471 346.489 310.779 346.105 312.1Z" fill="black"/>
<path d="M284.732 420.007L280.221 417.376L280.69 416.57H220.158L220.939 417.932L216.702 420.371H284.732V420.007Z" fill="#EA362B"/>
<path d="M284.732 420.007L280.221 417.376L280.69 416.57H220.158L220.939 417.932L216.702 420.371H284.732V420.007Z" fill="black"/>
<path d="M280.221 417.376L284.732 420.007V416.57H280.69L280.221 417.376Z" fill="#EA362B"/>
<path d="M280.221 417.376L284.732 420.007V416.57H280.69L280.221 417.376Z" fill="black"/>
<path d="M175.216 348.154H180.902L179.063 344.948L176.757 347.72L175.216 346.434V348.154Z" fill="#EA362B"/>
<path d="M175.216 348.154H180.902L179.063 344.948L176.757 347.72L175.216 346.434V348.154Z" fill="black"/>
<path d="M176.562 340.59L176.422 340.418C176.315 340.287 176.208 340.156 176.101 340.026L172.592 344.244L175.216 346.434V342.724H177.786L176.562 340.59Z" fill="#EA362B"/>
<path d="M176.562 340.59L176.422 340.418C176.315 340.287 176.208 340.156 176.101 340.026L172.592 344.244L175.216 346.434V342.724H177.786L176.562 340.59Z" fill="black"/>
<path fill-rule="evenodd" clip-rule="evenodd" d="M251.64 182.018C286.28 182.526 318.088 190.918 337.916 211.471C358.11 232.403 365.216 265.216 351.532 312.85C350.145 311.275 348.699 309.706 347.208 308.176C359.354 263.408 351.959 233.842 334.017 215.244C315.532 196.083 285.189 187.831 250.845 187.438C216.492 187.828 186.853 195.82 169.054 214.679C152.008 232.741 145.187 261.491 156.707 305.265C155.192 306.69 153.714 308.173 152.286 309.686C139.387 263.234 145.877 231.332 165.114 210.949C184.287 190.634 215.457 182.518 250.055 182.018L250.055 182C250.319 182.002 250.582 182.005 250.845 182.007C251.11 182.005 251.375 182.002 251.64 182L251.64 182.018ZM140.737 323.948C143.788 319.514 147.784 314.456 152.286 309.686C152.548 310.629 152.818 311.578 153.096 312.533L158.301 311.014C157.735 309.069 157.204 307.153 156.707 305.265C159.179 302.939 161.749 300.768 164.356 298.878C169.205 295.361 174.407 292.651 179.507 291.904C184.548 291.165 189.433 292.368 193.474 296.346L206.139 307.973L208.231 309.893L205.311 313.403L180.913 342.724H321.545L322.763 344.188L320.458 348.154H180.902L179.063 344.948L176.757 347.72L175.216 346.434V342.724H177.786L176.562 340.59L176.422 340.418C176.315 340.287 176.208 340.156 176.101 340.026L200.755 310.396L190.068 300.585L190.049 300.603C189.945 300.492 189.84 300.384 189.735 300.279L189.649 300.2L189.652 300.197C186.942 297.543 183.816 296.76 180.292 297.276C176.432 297.842 172.064 299.992 167.535 303.276C160.497 308.379 153.607 315.823 148.395 322.635C147.067 322.608 145.761 322.708 144.48 322.929C143.182 323.153 141.933 323.497 140.737 323.948ZM361.172 325.098C358.585 321.398 355.275 317.101 351.532 312.85C351.459 313.106 351.384 313.363 351.31 313.619L346.105 312.1C346.489 310.779 346.857 309.471 347.208 308.176C344.167 305.055 340.942 302.096 337.657 299.575C332.877 295.908 327.748 292.993 322.717 292.027C317.518 291.029 312.422 292.132 308.267 296.425L308.325 296.481L295.808 307.973L294.006 309.627L297.148 313.403L321.545 342.724H323.614L322.763 344.188L325.394 347.35V348.154H320.458L310.042 366.072H191.183L180.902 348.154H175.216V346.434L172.592 344.244L176.101 340.026C166.297 328.13 156.884 322.804 148.395 322.635C146.917 324.567 145.574 326.449 144.4 328.212L139.889 325.2C140.163 324.789 140.445 324.371 140.737 323.948C133.23 326.774 127.743 333.787 124.538 341.566C120.802 350.635 119.807 361.531 122.606 370.135C124.017 374.474 126.437 378.351 130.091 381.022C133.774 383.714 138.482 385.01 144.127 384.556C149.606 384.116 154.182 383.045 157.971 381.478L184.039 422H318.565L341.911 381.013C345.912 382.836 350.859 384.075 356.908 384.555C362.536 385.002 367.231 383.727 370.908 381.074C374.559 378.441 376.981 374.613 378.393 370.326C381.194 361.826 380.197 351.07 376.463 342.122C373.384 334.747 368.208 328.082 361.172 325.098ZM353.231 323.448C354.744 325.415 356.118 327.31 357.316 329.057L361.785 325.984C361.586 325.693 361.381 325.397 361.172 325.098C359.71 324.478 358.168 324.017 356.548 323.741C355.46 323.556 354.354 323.457 353.231 323.448ZM353.231 323.448C348.071 316.742 341.29 309.203 334.36 303.886C329.862 300.434 325.526 298.095 321.696 297.359C318.19 296.686 315.144 297.342 312.514 299.853L312.588 299.934L301.482 310.13L325.919 339.499C335.605 328.272 344.883 323.381 353.231 323.448ZM306.886 371.502H310.756V366.072H310.042L306.886 371.502ZM306.886 371.502H194.299L219.223 414.941H281.636L306.886 371.502ZM186.995 416.57L162.798 378.957C163.184 378.705 163.558 378.447 163.921 378.183C168.562 374.795 171.179 370.456 172.443 366.024C173.696 361.633 173.613 357.197 172.964 353.493C172.324 349.839 171.086 346.638 169.773 344.738C167.602 341.596 164.418 337.986 160.034 335.921C155.513 333.792 149.999 333.443 143.607 336.377C137.284 339.279 133.481 345.164 131.799 351.237C130.126 357.276 130.413 363.963 132.787 368.94C134.361 372.241 137.455 373.961 140.671 374.7C143.882 375.438 147.538 375.293 150.961 374.621C154.396 373.947 157.797 372.703 160.523 371.06C163.132 369.489 165.65 367.229 166.374 364.289C167.544 359.541 166.156 353.763 163.326 349.372C160.479 344.957 155.678 341.246 149.592 341.932C144.564 342.499 140.956 346.595 139.07 350.832C137.169 355.104 136.558 360.488 138.461 364.747C139.661 367.434 142.266 368.525 144.587 368.813C146.938 369.105 149.543 368.68 151.845 367.821C154.136 366.967 156.427 365.568 157.959 363.63C159.567 361.595 160.365 358.874 159.201 355.949C158.364 353.844 157.297 352.161 155.899 351.095C154.383 349.937 152.635 349.637 150.984 350.108C149.474 350.54 148.284 351.542 147.435 352.549C146.564 353.58 145.883 354.811 145.443 356.036C145.264 356.537 145.124 356.967 145.024 357.329C144.938 357.641 144.833 358.069 144.812 358.499L144.811 358.509C144.804 358.652 144.773 359.261 145.082 359.915C145.272 360.316 145.685 360.924 146.478 361.268C147.28 361.615 148.019 361.496 148.463 361.343C149.171 361.1 149.589 360.628 149.681 360.524L149.688 360.516C149.849 360.335 149.971 360.157 150.052 360.03C150.363 359.543 150.643 358.901 150.845 358.276C151.002 357.791 151.155 357.184 151.218 356.532C151.332 356.362 151.451 356.201 151.575 356.054C152.015 355.533 152.352 355.364 152.472 355.33L152.479 355.328C152.502 355.339 152.547 355.363 152.613 355.413C152.913 355.642 153.509 356.309 154.165 357.959C154.471 358.729 154.365 359.428 153.708 360.26C152.974 361.189 151.637 362.104 149.952 362.733C148.279 363.358 146.561 363.587 145.253 363.424C143.914 363.258 143.525 362.788 143.409 362.529C142.326 360.104 142.529 356.397 144.022 353.043C145.53 349.653 147.896 347.587 150.198 347.328C153.49 346.957 156.563 348.893 158.771 352.318C160.995 355.768 161.841 360.022 161.111 362.988C160.913 363.79 159.954 365.067 157.729 366.408C155.622 367.677 152.832 368.721 149.918 369.293C146.992 369.867 144.141 369.926 141.883 369.408C139.632 368.89 138.296 367.894 137.679 366.6C135.98 363.038 135.624 357.738 137.023 352.688C138.413 347.671 141.399 343.363 145.866 341.313C150.877 339.013 154.719 339.419 157.727 340.835C160.872 342.316 163.39 345.042 165.315 347.828C166.05 348.891 167.072 351.281 167.624 354.431C168.167 357.53 168.207 361.109 167.23 364.532C166.265 367.913 164.301 371.186 160.728 373.794C157.126 376.423 151.72 378.498 143.693 379.144C139.159 379.509 135.782 378.46 133.287 376.636C130.762 374.79 128.908 371.981 127.761 368.454C125.443 361.327 126.195 351.78 129.55 343.638C132.925 335.447 138.578 329.456 145.4 328.28C152.081 327.129 161.194 330.387 172.082 343.681L213.71 416.23V416.57H186.995ZM220.939 417.932L220.158 416.57H280.69H284.732V420.007V420.371H216.702L220.939 417.932ZM337.207 378.314L315.416 416.57H286.963L328.7 344.766L329.645 343.977L329.44 343.73C340.104 331.09 349.046 327.972 355.64 329.094C362.461 330.255 368.098 336.161 371.46 344.216C374.805 352.23 375.552 361.62 373.245 368.624C372.103 372.089 370.258 374.851 367.739 376.668C365.248 378.466 361.872 379.503 357.337 379.142C349.317 378.506 343.917 376.459 340.321 373.868C336.755 371.299 334.801 368.08 333.842 364.762C332.87 361.401 332.909 357.885 333.45 354.839C333.999 351.742 335.018 349.396 335.746 348.355C337.665 345.614 340.177 342.929 343.317 341.469C346.326 340.07 350.171 339.67 355.18 341.94C359.641 343.961 362.613 348.201 363.996 353.128C365.389 358.092 365.033 363.296 363.345 366.79C362.737 368.049 361.411 369.034 359.152 369.547C356.894 370.059 354.042 370 351.118 369.434C348.206 368.869 345.419 367.84 343.315 366.588C341.088 365.264 340.143 364.01 339.952 363.242C339.228 360.344 340.065 356.171 342.28 352.779C344.476 349.417 347.543 347.498 350.848 347.866C353.159 348.123 355.514 350.164 357.012 353.486C358.498 356.782 358.695 360.413 357.624 362.779C357.517 363.015 357.136 363.485 355.785 363.65C354.474 363.811 352.753 363.584 351.081 362.968C349.395 362.347 348.062 361.444 347.333 360.533C346.683 359.721 346.59 359.059 346.884 358.329C347.536 356.71 348.127 356.059 348.422 355.836C348.495 355.781 348.543 355.758 348.565 355.748C348.57 355.749 348.575 355.751 348.582 355.753C348.706 355.788 349.042 355.956 349.478 356.465C349.598 356.605 349.714 356.758 349.824 356.921C349.888 357.564 350.042 358.161 350.198 358.638C350.401 359.258 350.682 359.895 350.995 360.379C351.077 360.506 351.2 360.682 351.362 360.863L351.369 360.87C351.462 360.974 351.88 361.44 352.586 361.679C353.025 361.828 353.754 361.945 354.549 361.605C355.338 361.268 355.755 360.666 355.95 360.26C356.266 359.601 356.234 358.986 356.227 358.842L356.226 358.832C356.205 358.399 356.098 357.971 356.012 357.664C355.912 357.305 355.772 356.879 355.592 356.384C355.151 355.17 354.467 353.953 353.596 352.933C352.744 351.937 351.555 350.95 350.052 350.526C348.414 350.064 346.677 350.356 345.163 351.497C343.764 352.551 342.695 354.215 341.856 356.297C340.682 359.209 341.492 361.917 343.104 363.93C344.637 365.845 346.926 367.223 349.209 368.064C351.505 368.91 354.102 369.327 356.443 369.04C358.746 368.758 361.354 367.689 362.561 365.021C364.472 360.801 363.856 355.472 361.953 351.252C360.063 347.058 356.454 343.026 351.446 342.469C345.388 341.795 340.594 345.441 337.743 349.806C334.913 354.14 333.518 359.855 334.692 364.559C335.421 367.48 337.948 369.711 340.547 371.257C343.268 372.876 346.662 374.101 350.089 374.765C353.503 375.426 357.149 375.568 360.35 374.842C363.551 374.116 366.646 372.424 368.225 369.155C370.603 364.234 370.89 357.625 369.216 351.659C367.531 345.657 363.726 339.852 357.415 336.992C351.038 334.104 345.543 334.448 341.035 336.544C336.659 338.578 333.478 342.137 331.307 345.238C329.991 347.118 328.752 350.281 328.112 353.889C327.463 357.548 327.379 361.932 328.634 366.271C329.9 370.654 332.52 374.936 337.155 378.276L337.207 378.314Z" fill="#EA362B"/>
<path fill-rule="evenodd" clip-rule="evenodd" d="M251.64 182.018C286.28 182.526 318.088 190.918 337.916 211.471C358.11 232.403 365.216 265.216 351.532 312.85C350.145 311.275 348.699 309.706 347.208 308.176C359.354 263.408 351.959 233.842 334.017 215.244C315.532 196.083 285.189 187.831 250.845 187.438C216.492 187.828 186.853 195.82 169.054 214.679C152.008 232.741 145.187 261.491 156.707 305.265C155.192 306.69 153.714 308.173 152.286 309.686C139.387 263.234 145.877 231.332 165.114 210.949C184.287 190.634 215.457 182.518 250.055 182.018L250.055 182C250.319 182.002 250.582 182.005 250.845 182.007C251.11 182.005 251.375 182.002 251.64 182L251.64 182.018ZM140.737 323.948C143.788 319.514 147.784 314.456 152.286 309.686C152.548 310.629 152.818 311.578 153.096 312.533L158.301 311.014C157.735 309.069 157.204 307.153 156.707 305.265C159.179 302.939 161.749 300.768 164.356 298.878C169.205 295.361 174.407 292.651 179.507 291.904C184.548 291.165 189.433 292.368 193.474 296.346L206.139 307.973L208.231 309.893L205.311 313.403L180.913 342.724H321.545L322.763 344.188L320.458 348.154H180.902L179.063 344.948L176.757 347.72L175.216 346.434V342.724H177.786L176.562 340.59L176.422 340.418C176.315 340.287 176.208 340.156 176.101 340.026L200.755 310.396L190.068 300.585L190.049 300.603C189.945 300.492 189.84 300.384 189.735 300.279L189.649 300.2L189.652 300.197C186.942 297.543 183.816 296.76 180.292 297.276C176.432 297.842 172.064 299.992 167.535 303.276C160.497 308.379 153.607 315.823 148.395 322.635C147.067 322.608 145.761 322.708 144.48 322.929C143.182 323.153 141.933 323.497 140.737 323.948ZM361.172 325.098C358.585 321.398 355.275 317.101 351.532 312.85C351.459 313.106 351.384 313.363 351.31 313.619L346.105 312.1C346.489 310.779 346.857 309.471 347.208 308.176C344.167 305.055 340.942 302.096 337.657 299.575C332.877 295.908 327.748 292.993 322.717 292.027C317.518 291.029 312.422 292.132 308.267 296.425L308.325 296.481L295.808 307.973L294.006 309.627L297.148 313.403L321.545 342.724H323.614L322.763 344.188L325.394 347.35V348.154H320.458L310.042 366.072H191.183L180.902 348.154H175.216V346.434L172.592 344.244L176.101 340.026C166.297 328.13 156.884 322.804 148.395 322.635C146.917 324.567 145.574 326.449 144.4 328.212L139.889 325.2C140.163 324.789 140.445 324.371 140.737 323.948C133.23 326.774 127.743 333.787 124.538 341.566C120.802 350.635 119.807 361.531 122.606 370.135C124.017 374.474 126.437 378.351 130.091 381.022C133.774 383.714 138.482 385.01 144.127 384.556C149.606 384.116 154.182 383.045 157.971 381.478L184.039 422H318.565L341.911 381.013C345.912 382.836 350.859 384.075 356.908 384.555C362.536 385.002 367.231 383.727 370.908 381.074C374.559 378.441 376.981 374.613 378.393 370.326C381.194 361.826 380.197 351.07 376.463 342.122C373.384 334.747 368.208 328.082 361.172 325.098ZM353.231 323.448C354.744 325.415 356.118 327.31 357.316 329.057L361.785 325.984C361.586 325.693 361.381 325.397 361.172 325.098C359.71 324.478 358.168 324.017 356.548 323.741C355.46 323.556 354.354 323.457 353.231 323.448ZM353.231 323.448C348.071 316.742 341.29 309.203 334.36 303.886C329.862 300.434 325.526 298.095 321.696 297.359C318.19 296.686 315.144 297.342 312.514 299.853L312.588 299.934L301.482 310.13L325.919 339.499C335.605 328.272 344.883 323.381 353.231 323.448ZM306.886 371.502H310.756V366.072H310.042L306.886 371.502ZM306.886 371.502H194.299L219.223 414.941H281.636L306.886 371.502ZM186.995 416.57L162.798 378.957C163.184 378.705 163.558 378.447 163.921 378.183C168.562 374.795 171.179 370.456 172.443 366.024C173.696 361.633 173.613 357.197 172.964 353.493C172.324 349.839 171.086 346.638 169.773 344.738C167.602 341.596 164.418 337.986 160.034 335.921C155.513 333.792 149.999 333.443 143.607 336.377C137.284 339.279 133.481 345.164 131.799 351.237C130.126 357.276 130.413 363.963 132.787 368.94C134.361 372.241 137.455 373.961 140.671 374.7C143.882 375.438 147.538 375.293 150.961 374.621C154.396 373.947 157.797 372.703 160.523 371.06C163.132 369.489 165.65 367.229 166.374 364.289C167.544 359.541 166.156 353.763 163.326 349.372C160.479 344.957 155.678 341.246 149.592 341.932C144.564 342.499 140.956 346.595 139.07 350.832C137.169 355.104 136.558 360.488 138.461 364.747C139.661 367.434 142.266 368.525 144.587 368.813C146.938 369.105 149.543 368.68 151.845 367.821C154.136 366.967 156.427 365.568 157.959 363.63C159.567 361.595 160.365 358.874 159.201 355.949C158.364 353.844 157.297 352.161 155.899 351.095C154.383 349.937 152.635 349.637 150.984 350.108C149.474 350.54 148.284 351.542 147.435 352.549C146.564 353.58 145.883 354.811 145.443 356.036C145.264 356.537 145.124 356.967 145.024 357.329C144.938 357.641 144.833 358.069 144.812 358.499L144.811 358.509C144.804 358.652 144.773 359.261 145.082 359.915C145.272 360.316 145.685 360.924 146.478 361.268C147.28 361.615 148.019 361.496 148.463 361.343C149.171 361.1 149.589 360.628 149.681 360.524L149.688 360.516C149.849 360.335 149.971 360.157 150.052 360.03C150.363 359.543 150.643 358.901 150.845 358.276C151.002 357.791 151.155 357.184 151.218 356.532C151.332 356.362 151.451 356.201 151.575 356.054C152.015 355.533 152.352 355.364 152.472 355.33L152.479 355.328C152.502 355.339 152.547 355.363 152.613 355.413C152.913 355.642 153.509 356.309 154.165 357.959C154.471 358.729 154.365 359.428 153.708 360.26C152.974 361.189 151.637 362.104 149.952 362.733C148.279 363.358 146.561 363.587 145.253 363.424C143.914 363.258 143.525 362.788 143.409 362.529C142.326 360.104 142.529 356.397 144.022 353.043C145.53 349.653 147.896 347.587 150.198 347.328C153.49 346.957 156.563 348.893 158.771 352.318C160.995 355.768 161.841 360.022 161.111 362.988C160.913 363.79 159.954 365.067 157.729 366.408C155.622 367.677 152.832 368.721 149.918 369.293C146.992 369.867 144.141 369.926 141.883 369.408C139.632 368.89 138.296 367.894 137.679 366.6C135.98 363.038 135.624 357.738 137.023 352.688C138.413 347.671 141.399 343.363 145.866 341.313C150.877 339.013 154.719 339.419 157.727 340.835C160.872 342.316 163.39 345.042 165.315 347.828C166.05 348.891 167.072 351.281 167.624 354.431C168.167 357.53 168.207 361.109 167.23 364.532C166.265 367.913 164.301 371.186 160.728 373.794C157.126 376.423 151.72 378.498 143.693 379.144C139.159 379.509 135.782 378.46 133.287 376.636C130.762 374.79 128.908 371.981 127.761 368.454C125.443 361.327 126.195 351.78 129.55 343.638C132.925 335.447 138.578 329.456 145.4 328.28C152.081 327.129 161.194 330.387 172.082 343.681L213.71 416.23V416.57H186.995ZM220.939 417.932L220.158 416.57H280.69H284.732V420.007V420.371H216.702L220.939 417.932ZM337.207 378.314L315.416 416.57H286.963L328.7 344.766L329.645 343.977L329.44 343.73C340.104 331.09 349.046 327.972 355.64 329.094C362.461 330.255 368.098 336.161 371.46 344.216C374.805 352.23 375.552 361.62 373.245 368.624C372.103 372.089 370.258 374.851 367.739 376.668C365.248 378.466 361.872 379.503 357.337 379.142C349.317 378.506 343.917 376.459 340.321 373.868C336.755 371.299 334.801 368.08 333.842 364.762C332.87 361.401 332.909 357.885 333.45 354.839C333.999 351.742 335.018 349.396 335.746 348.355C337.665 345.614 340.177 342.929 343.317 341.469C346.326 340.07 350.171 339.67 355.18 341.94C359.641 343.961 362.613 348.201 363.996 353.128C365.389 358.092 365.033 363.296 363.345 366.79C362.737 368.049 361.411 369.034 359.152 369.547C356.894 370.059 354.042 370 351.118 369.434C348.206 368.869 345.419 367.84 343.315 366.588C341.088 365.264 340.143 364.01 339.952 363.242C339.228 360.344 340.065 356.171 342.28 352.779C344.476 349.417 347.543 347.498 350.848 347.866C353.159 348.123 355.514 350.164 357.012 353.486C358.498 356.782 358.695 360.413 357.624 362.779C357.517 363.015 357.136 363.485 355.785 363.65C354.474 363.811 352.753 363.584 351.081 362.968C349.395 362.347 348.062 361.444 347.333 360.533C346.683 359.721 346.59 359.059 346.884 358.329C347.536 356.71 348.127 356.059 348.422 355.836C348.495 355.781 348.543 355.758 348.565 355.748C348.57 355.749 348.575 355.751 348.582 355.753C348.706 355.788 349.042 355.956 349.478 356.465C349.598 356.605 349.714 356.758 349.824 356.921C349.888 357.564 350.042 358.161 350.198 358.638C350.401 359.258 350.682 359.895 350.995 360.379C351.077 360.506 351.2 360.682 351.362 360.863L351.369 360.87C351.462 360.974 351.88 361.44 352.586 361.679C353.025 361.828 353.754 361.945 354.549 361.605C355.338 361.268 355.755 360.666 355.95 360.26C356.266 359.601 356.234 358.986 356.227 358.842L356.226 358.832C356.205 358.399 356.098 357.971 356.012 357.664C355.912 357.305 355.772 356.879 355.592 356.384C355.151 355.17 354.467 353.953 353.596 352.933C352.744 351.937 351.555 350.95 350.052 350.526C348.414 350.064 346.677 350.356 345.163 351.497C343.764 352.551 342.695 354.215 341.856 356.297C340.682 359.209 341.492 361.917 343.104 363.93C344.637 365.845 346.926 367.223 349.209 368.064C351.505 368.91 354.102 369.327 356.443 369.04C358.746 368.758 361.354 367.689 362.561 365.021C364.472 360.801 363.856 355.472 361.953 351.252C360.063 347.058 356.454 343.026 351.446 342.469C345.388 341.795 340.594 345.441 337.743 349.806C334.913 354.14 333.518 359.855 334.692 364.559C335.421 367.48 337.948 369.711 340.547 371.257C343.268 372.876 346.662 374.101 350.089 374.765C353.503 375.426 357.149 375.568 360.35 374.842C363.551 374.116 366.646 372.424 368.225 369.155C370.603 364.234 370.89 357.625 369.216 351.659C367.531 345.657 363.726 339.852 357.415 336.992C351.038 334.104 345.543 334.448 341.035 336.544C336.659 338.578 333.478 342.137 331.307 345.238C329.991 347.118 328.752 350.281 328.112 353.889C327.463 357.548 327.379 361.932 328.634 366.271C329.9 370.654 332.52 374.936 337.155 378.276L337.207 378.314Z" fill="black"/>
<path d="M139.889 325.2L144.4 328.212C145.574 326.449 146.917 324.567 148.395 322.635C147.067 322.608 145.761 322.708 144.48 322.929C143.182 323.153 141.933 323.497 140.737 323.948C140.445 324.371 140.163 324.789 139.889 325.2Z" fill="#EA362B"/>
<path d="M139.889 325.2L144.4 328.212C145.574 326.449 146.917 324.567 148.395 322.635C147.067 322.608 145.761 322.708 144.48 322.929C143.182 323.153 141.933 323.497 140.737 323.948C140.445 324.371 140.163 324.789 139.889 325.2Z" fill="black"/>
<defs>
<clipPath id="clip0_5_132">
<rect x="100" width="300" height="500" rx="15" fill="white"/>
</clipPath>
</defs>
</svg>
