<svg width="68" height="71" viewBox="0 0 68 71" fill="none" xmlns="http://www.w3.org/2000/svg">
<path d="M44.4244 49.8287C40.5166 60.5653 34.6089 65.0176 24.5434 61.354C14.4778 57.6905 9.89814 49.4211 13.8059 38.6845C21.7908 30.3559 26.3296 25.128 36.3951 28.7916C44.4786 38.3384 48.3322 39.0921 44.4244 49.8287Z" fill="#004A8F"/>
<path d="M22.1132 24.0399C21.3587 28.3191 18.5741 31.4049 15.8937 30.9323C13.2134 30.4597 11.6522 26.6076 12.4067 22.3284C13.1612 18.0492 15.9458 14.9634 18.6262 15.436C21.3065 15.9086 22.8677 19.7607 22.1132 24.0399Z" fill="#004A8F"/>
<path d="M38.2863 17.9012C36.8152 23.3915 30.6431 27.6358 28.8891 26.0381C25.1703 25.0416 23.3481 19.783 24.8193 14.2927C26.2904 8.80244 30.4977 5.15946 34.2165 6.15591C37.9353 7.15237 39.0847 10.0291 38.2863 17.9012Z" fill="#004A8F"/>
<path d="M50.3438 26.7901C47.4874 31.7376 45.5296 33.1825 40.9125 31.502C37.573 29.5739 37.1814 24.0002 40.0378 19.0528C42.8942 14.1053 46.6577 14.9911 50.2366 15.7433C52.9088 19.743 53.2002 21.8427 50.3438 26.7901Z" fill="#004A8F"/>
<path d="M57.0025 40.2216C54.2484 43.5038 50.6888 45.2259 48.1724 43.1144C45.6561 41.003 46.9816 37.0061 49.7357 33.7239C52.4898 30.4417 55.6295 29.1171 58.1459 31.2285C61.3123 35.1855 59.7566 36.9394 57.0025 40.2216Z" fill="#004A8F"/>
</svg>
